HIERARCHY
ROOT root
{
	OFFSET	0	13.1	24.9
	CHANNELS 6  Xposition Yposition Zposition Xrotation Yrotation Zrotation
	JOINT spine_1
	{
		OFFSET	0	9.99999	0
		CHANNELS 3  Xrotation Yrotation Zrotation
		JOINT spine_2
		{
			OFFSET	0	112	-10
			CHANNELS 3  Xrotation Yrotation Zrotation
			JOINT spine_3
			{
				OFFSET	0	206.5	19.3
				CHANNELS 3  Xrotation Yrotation Zrotation
				JOINT spine_4
				{
					OFFSET	0	110.4	14.6
					CHANNELS 3  Xrotation Yrotation Zrotation
					JOINT neck_1
					{
						OFFSET	0	71.8	-50.3
						CHANNELS 3  Xrotation Yrotation Zrotation
						JOINT neck_2
						{
							OFFSET	0	86.2	-25.8
							CHANNELS 3  Xrotation Yrotation Zrotation
							JOINT head_ee
							{
								OFFSET	0	179.8	-8.7
								CHANNELS 3  Xrotation Yrotation Zrotation
								End Site
								{
									OFFSET	1	0	0
								}
							}
						}
					}
					JOINT left_clavicle
					{
						OFFSET	-43.2	22.4	-70.8
						CHANNELS 3  Xrotation Yrotation Zrotation
						JOINT left_shoulder
						{
							OFFSET	-93.9	-5.79999	48.7
							CHANNELS 3  Xrotation Yrotation Zrotation
							JOINT left_elbow
							{
								OFFSET	-291.4	-30.8	15.2
								CHANNELS 3  Xrotation Yrotation Zrotation
								JOINT left_lowarm_twist
								{
									OFFSET	-110.7	-3.89999	13.6
									CHANNELS 3  Xrotation Yrotation Zrotation
									JOINT left_hand
									{
										OFFSET	-110.7	-3.89999	13.6
										CHANNELS 3  Xrotation Yrotation Zrotation
										JOINT left_ee
										{
											OFFSET	-80.8	-5.10001	12.1
											CHANNELS 3  Xrotation Yrotation Zrotation
											End Site
											{
												OFFSET	1	0	0
											}
										}
									}
								}
							}
						}
					}
					JOINT right_clavicle
					{
						OFFSET	43.2	22.4	-70.8
						CHANNELS 3  Xrotation Yrotation Zrotation
						JOINT right_shoulder
						{
							OFFSET	93.9	-5.79999	48.7
							CHANNELS 3  Xrotation Yrotation Zrotation
							JOINT right_elbow
							{
								OFFSET	291.4	-30.8	15.2
								CHANNELS 3  Xrotation Yrotation Zrotation
								JOINT right_lowarm_twist
								{
									OFFSET	110.7	-3.89999	13.6
									CHANNELS 3  Xrotation Yrotation Zrotation
									JOINT right_hand
									{
										OFFSET	110.7	-3.89999	13.6
										CHANNELS 3  Xrotation Yrotation Zrotation
										JOINT right_ee
										{
											OFFSET	80.8	-5.10001	12.1
											CHANNELS 3  Xrotation Yrotation Zrotation
											End Site
											{
												OFFSET	1	0	0
											}
										}
									}
								}
							}
						}
					}
				}
			}
		}
	}
	JOINT left_hip
	{
		OFFSET	-82.8	-127.5	0.300001
		CHANNELS 3  Xrotation Yrotation Zrotation
		JOINT left_knee
		{
			OFFSET	-28.2	-396.7	2.2
			CHANNELS 3  Xrotation Yrotation Zrotation
			JOINT left_ankle
			{
				OFFSET	-11.7	-411.3	35.4
				CHANNELS 3  Xrotation Yrotation Zrotation
				JOINT left_toes
				{
					OFFSET	0	-60	-88.6
					CHANNELS 3  Xrotation Yrotation Zrotation
					JOINT left_foot_ee
					{
						OFFSET	-22.5	-16.5	-42.2
						CHANNELS 3  Xrotation Yrotation Zrotation
						End Site
						{
							OFFSET	1	0	0
						}
					}
				}
			}
		}
	}
	JOINT right_hip
	{
		OFFSET	82.8	-127.5	0.300001
		CHANNELS 3  Xrotation Yrotation Zrotation
		JOINT right_knee
		{
			OFFSET	28.2	-396.7	2.2
			CHANNELS 3  Xrotation Yrotation Zrotation
			JOINT right_ankle
			{
				OFFSET	11.7	-411.3	35.4
				CHANNELS 3  Xrotation Yrotation Zrotation
				JOINT right_toes
				{
					OFFSET	0	-60	-88.6
					CHANNELS 3  Xrotation Yrotation Zrotation
					JOINT right_foot_ee
					{
						OFFSET	22.5	-16.5	-42.2
						CHANNELS 3  Xrotation Yrotation Zrotation
						End Site
						{
							OFFSET	1	0	0
						}
					}
				}
			}
		}
	}
}
MOTION
Frames: 12
Frame Time: 0.02
509.677 629.591 -1855.02 -125.282 70.8807 136.178 6.61551 -0.337255 -2.15226 6.61807 -0.19965 -2.16935 6.62226 0.00954492 -2.17849 6.61579 -0.334546 -2.15269 -2.47158 -17.1429 9.16423 -1.18461 -38.1623 7.63825 -0.0 0.0 -0.0 12.2192 -22.3522 24.2507 -14.0285 7.72708 63.2588 0.409305 -11.462 0.0410778 85.2441 -4.45578 -8.87733 -4.11189 6.17365 -25.1404 -0.0 0.0 -0.0 5.32336 -16.8673 -10.3065 -18.2321 -2.52266 -57.9035 0.849447 22.8207 -0.171442 75.7123 3.35365 8.34984 5.48756 -8.92307 -43.5505 0.0 0.0 0.0 38.6583 -39.3004 1.03786 -10.2739 0.284779 1.54888 3.23828 22.7828 -0.485483 34.4088 -0.0 -0.0 -0.0 0.0 -0.0 4.64153 -30.5249 -12.3019 -25.0944 -0.200494 -3.81506 32.2754 -27.0951 4.42407 10.5304 -0.0 -0.0 0.0 0.0 0.0 
499.086 628.771 -1849.75 -123.264 72.0735 134.102 6.77127 -0.346066 -2.21468 6.77398 -0.204474 -2.2322 6.77825 0.00466857 -2.24154 6.77141 -0.349311 -2.21417 -2.26431 -17.2006 8.93275 -0.960718 -38.0742 7.4608 -0.0 0.0 -0.0 12.9129 -23.6449 25.7313 -11.2269 8.98586 63.946 0.477137 -13.2985 0.0556228 85.6932 -4.50972 -8.89759 -4.76703 5.47112 -30.4636 -0.0 0.0 -0.0 4.8153 -13.7304 -9.52585 -18.1862 -2.86989 -60.1558 0.702836 19.1963 -0.118854 79.161 3.74215 8.56176 5.06688 -11.9769 -40.7725 0.0 0.0 0.0 36.9614 -40.2983 0.148414 -8.07786 0.247344 1.21401 1.41589 24.538 -0.215004 39.7252 -0.0 -0.0 -0.0 0.0 -0.0 5.68005 -29.8984 -11.8183 -27.889 -0.119116 -4.23618 29.1157 -28.1211 4.08561 9.62661 -0.0 -0.0 0.0 0.0 0.0 
492.752 626.997 -1846.68 -121.741 72.0027 132.486 6.97193 -0.367613 -2.24558 6.97471 -0.224014 -2.26441 6.97961 -0.0197958 -2.27537 6.97259 -0.378808 -2.24372 -2.15628 -17.0404 8.80017 -0.866862 -37.675 7.37044 -0.0 0.0 -0.0 13.5457 -26.7758 26.8465 -6.06144 9.00347 64.134 0.622556 -17.1397 0.0938184 85.5131 -4.48807 -8.88952 -5.45374 5.31115 -36.0265 -0.0 0.0 -0.0 4.22498 -10.9529 -8.50601 -18.1517 -3.09199 -62.223 0.563658 15.6009 -0.0772168 82.4444 4.12322 8.74151 4.42605 -14.5146 -36.1594 0.0 0.0 0.0 33.5828 -40.8385 -1.11447 -6.1668 0.204339 0.923908 4.61179 24.28 -0.693912 40.2658 -0.0 -0.0 -0.0 0.0 -0.0 11.0758 -30.1767 -9.81314 -31.9991 0.0376808 -4.84731 23.0793 -28.6584 3.34349 8.9162 -0.0 -0.0 0.0 0.0 0.0 
479.122 625.21 -1843.12 -121.727 71.9279 132.367 7.15818 -0.507341 -2.2906 7.16103 -0.360596 -2.31822 7.17134 -0.158946 -2.3407 7.16408 -0.526524 -2.28627 1.65202 -16.6171 9.28684 3.65131 -36.9301 9.43973 -0.0 0.0 -0.0 13.7488 -27.5202 27.2214 -5.05329 9.63514 64.8512 0.860842 -23.0949 0.175886 85.1909 -4.4494 -8.8749 -6.08886 7.5549 -39.7368 -0.0 0.0 -0.0 3.81856 -8.40359 -7.72913 -18.9528 -3.34615 -63.8689 0.174798 4.94902 -0.00755399 83.8261 4.28652 8.81057 3.98548 -15.2717 -32.9369 0.0 0.0 0.0 30.1656 -41.0788 -2.27603 -2.72681 0.102629 0.405853 8.02189 23.4372 -1.19066 39.4444 -0.0 -0.0 -0.0 0.0 -0.0 14.5594 -28.507 -8.3607 -38.1812 0.35513 -5.74198 20.1636 -28.8406 2.96065 8.65436 -0.0 -0.0 0.0 0.0 0.0 
466.551 624.64 -1841.66 -126.208 70.9128 137.402 7.04884 -0.640149 -2.55795 7.05235 -0.476139 -2.59347 7.06868 -0.245698 -2.62532 7.05967 -0.6571 -2.55365 2.92349 -16.6302 10.0262 5.29442 -37.403 10.8184 -0.0 0.0 -0.0 13.6853 -27.5908 27.0645 -4.83421 9.98274 65.0142 1.10154 -28.6193 0.280986 84.0424 -4.31224 -8.82102 -6.60109 11.6189 -40.8174 -0.0 0.0 -0.0 3.35494 -6.41347 -6.81635 -20.297 -6.11729 -65.5168 0.180962 5.12261 -0.00809496 85.0816 4.4363 8.86989 2.48896 -17.3761 -22.8852 0.0 0.0 0.0 27.1831 -41.1829 -3.34334 -0.34059 0.0138747 0.0504255 12.0454 20.1025 -1.73989 38.9658 -0.0 -0.0 -0.0 0.0 -0.0 19.4917 -27.4309 -5.75941 -45.8781 0.882423 -6.80073 17.2407 -28.7916 2.5595 7.91811 -0.0 -0.0 0.0 0.0 0.0 
468.987 622.557 -1842.67 -129.816 70.8752 140.621 6.50344 -0.735263 -2.7541 6.50749 -0.558592 -2.79527 6.52935 -0.283452 -2.83637 6.51886 -0.727677 -2.75612 3.51472 -16.1331 10.9788 6.08946 -37.2537 12.1954 -0.0 0.0 -0.0 13.6271 -27.6473 26.9218 -3.93803 9.85632 64.5148 1.30271 -32.8335 0.383836 85.1915 -4.44946 -8.87492 -6.96682 15.6993 -40.2174 -0.0 0.0 -0.0 3.23025 -5.08787 -6.52176 -20.1893 -7.82585 -66.9248 0.199291 5.63828 -0.00981365 85.2062 4.45123 8.8756 0.832343 -16.9342 -12.0574 0.0 0.0 0.0 25.4619 -41.1045 -3.30244 1.98095 -0.0866287 -0.291614 15.0883 17.725 -2.13791 38.3518 -0.0 -0.0 -0.0 0.0 -0.0 23.058 -24.0367 -4.76945 -51.0861 1.31807 -7.47354 15.1743 -28.3465 2.26296 7.03993 -0.0 -0.0 0.0 0.0 0.0 
454.692 624.962 -1844.13 -130.043 70.4078 140.438 5.9927 -0.842219 -2.92295 5.99722 -0.654602 -2.97056 6.0258 -0.335485 -3.02323 6.01396 -0.808533 -2.93244 -0.378837 -16.1334 10.6504 1.40636 -37.3492 10.2418 -0.0 0.0 -0.0 13.5904 -28.1627 26.7668 -3.42502 8.90444 64.8957 1.52589 -37.0824 0.511802 85.725 -4.51353 -8.89901 -7.26121 19.4811 -38.9307 -0.0 0.0 -0.0 3.08876 -2.79631 -6.12857 -19.9497 -9.47046 -69.3928 0.202098 5.71717 -0.0100914 85.1762 4.44763 8.87422 -0.630153 -14.7908 -2.13796 0.0 0.0 0.0 24.1338 -40.9925 -3.5166 4.34389 -0.203099 -0.635377 18.8232 18.0213 -2.63019 38.6447 -0.0 -0.0 -0.0 0.0 -0.0 33.4691 -21.9433 -2.71577 -61.7171 2.38823 -8.71185 16.0875 -27.2591 2.37457 6.52238 -0.0 -0.0 0.0 0.0 0.0 
463.468 619.367 -1848.9 -124.515 70.7736 135.795 5.88076 -0.922749 -3.30818 5.88656 -0.710494 -3.36011 5.92155 -0.343616 -3.41711 5.90633 -0.878675 -3.32014 -2.34007 -15.9765 10.8819 -0.917064 -37.3585 9.71109 -0.0 0.0 -0.0 12.9492 -29.7397 25.0691 2.08495 6.40343 64.3427 1.67222 -39.6341 0.602636 86.135 -4.56293 -8.91711 -8.13398 25.9066 -38.7736 -0.0 0.0 -0.0 2.8476 -1.00057 -5.55591 -20.5418 -10.584 -71.1032 0.290987 8.20267 -0.0208651 83.2417 4.21725 8.78184 -1.46955 -7.4495 6.45352 0.0 0.0 0.0 23.3653 -41.243 -5.71376 5.9813 -0.292098 -0.870697 24.2041 17.5622 -3.29639 39.6647 -0.0 -0.0 -0.0 0.0 -0.0 37.0444 -13.3052 -1.97312 -68.6571 3.20363 -9.40583 17.039 -26.1495 2.48923 5.44359 -0.0 -0.0 0.0 0.0 0.0 
464.02 621.152 -1844.07 -117.544 74.1172 129.026 5.10384 -0.90424 -3.60705 5.11083 -0.67304 -3.65718 5.14743 -0.224068 -3.71177 5.12911 -0.807072 -3.62999 -3.27037 -15.9067 10.101 -2.13604 -36.6782 8.47315 -0.0 0.0 -0.0 12.108 -29.7157 23.1586 3.87661 1.13011 63.0822 1.71677 -40.3757 0.631276 85.4423 -4.47957 -8.88632 -7.66002 29.7645 -31.0863 -0.0 0.0 -0.0 2.52986 0.298103 -4.85173 -19.06 -11.0826 -72.1965 0.376791 10.5729 -0.0348639 78.678 3.68699 8.5335 -2.38331 2.33365 17.2484 0.0 0.0 0.0 23.1719 -42.8718 -6.17044 -0.691847 0.0278687 0.102514 35.7072 16.5717 -4.55084 39.8258 -0.0 -0.0 -0.0 0.0 -0.0 38.6215 -8.54614 -4.81961 -69.7101 3.3345 -9.50237 20.8315 -22.4963 2.93904 5.81512 -0.0 -0.0 0.0 0.0 0.0 
455.304 617.171 -1849.8 -117.241 74.5017 129.333 5.14349 -0.935877 -3.67977 5.15075 -0.699996 -3.73176 5.18964 -0.244628 -3.78888 5.17059 -0.839528 -3.7029 -5.29861 -16.3532 9.3106 -4.60149 -36.9788 6.74492 -0.0 0.0 -0.0 12.1139 -29.2464 23.2364 4.37847 0.941865 62.9869 1.68567 -39.8596 0.611235 85.2657 -4.45836 -8.87831 -7.41635 28.6204 -30.6941 -0.0 0.0 -0.0 1.03757 -1.66015 -2.16558 -18.6134 -11.5907 -75.9985 0.48906 13.6186 -0.0583978 78.083 3.61935 8.49803 -1.941 4.1427 14.9928 0.0 0.0 0.0 22.2187 -42.7899 -6.37006 -1.43684 0.0564897 0.213262 33.3322 16.431 -4.30758 39.7154 -0.0 -0.0 -0.0 0.0 -0.0 39.7774 -6.69153 -5.44537 -69.3512 3.2897 -9.46973 22.391 -17.4474 3.07435 5.61575 -0.0 -0.0 0.0 0.0 0.0 
448.788 617.539 -1852.06 -119.185 74.8079 131.705 5.26124 -1.15192 -3.70568 5.26842 -0.913958 -3.77135 5.32161 -0.461631 -3.85284 5.30247 -1.0639 -3.73187 -7.80487 -16.3522 9.26495 -7.58624 -36.9827 5.68782 -0.0 0.0 -0.0 12.2052 -29.429 23.4185 6.39183 0.0798159 62.7286 1.72172 -40.4571 0.634485 85.401 -4.4746 -8.88445 -7.38265 27.7845 -31.3333 -0.0 0.0 -0.0 -0.11734 -3.5496 -0.203923 -18.331 -11.9657 -78.6544 0.554212 15.3519 -0.0746963 77.4358 3.54621 8.45867 -1.38868 7.03012 12.4528 0.0 0.0 0.0 20.7329 -42.5648 -6.94038 -1.88397 0.0729739 0.279902 33.0184 17.3495 -4.28827 39.4104 -0.0 -0.0 -0.0 0.0 -0.0 42.0473 -1.64989 -4.73508 -67.8221 3.10113 -9.32759 22.062 -13.7971 3.00445 4.62208 -0.0 -0.0 0.0 0.0 0.0 
448.32 612.477 -1851.63 -118.809 75.0267 131.237 5.36169 -1.29314 -3.67821 5.36859 -1.05663 -3.7529 5.43081 -0.613161 -3.85016 5.41218 -1.21311 -3.70534 -9.17705 -16.0812 9.87868 -9.17203 -36.8791 5.82772 -0.0 0.0 -0.0 12.0917 -29.5344 23.1468 7.92966 -0.539956 62.2574 1.71181 -40.2938 0.628063 85.1513 -4.44464 -8.87308 -6.75897 25.0691 -29.8035 -0.0 0.0 -0.0 -1.1554 -4.91424 1.53773 -18.218 -12.2987 -79.9462 0.549964 15.2398 -0.0735757 77.0604 3.50399 8.43546 -0.313631 11.7639 7.13141 0.0 0.0 0.0 20.0802 -42.4566 -7.04396 -2.12678 0.0817076 0.316144 36.8616 16.7869 -4.66759 34.6809 -0.0 -0.0 -0.0 0.0 -0.0 42.2699 2.0004 -5.10602 -64.924 2.75448 -9.04468 23.0723 -9.63288 3.10787 4.24325 -0.0 -0.0 0.0 0.0 0.0 
